<svg xmlns="http://www.w3.org/2000/svg" width="104" height="40" viewBox="0 0 104 40">
  <defs fill="#000000">
    <style>
      .c1 { fill: #ffffff; }
      .c2 { fill: #0c0c0c; }
    </style>
  </defs>
  <g>
    <path class="c1" d="M33.72,34.65l.07,0A20,20,0,0,0,38.88,13a.18.18,0,0,0-.2-.13h-1.4a14.34,14.34,0,0,0-1.46.05,1.88,1.88,0,0,0-1.76,1.38,7.8,7.8,0,0,0-.28,1.44c-.06.71-.06,1.41-.08,2.14h2.08v3.26H33.72Z" transform="translate(0 0)" fill="#000000"/>
    <path class="c1" d="M50.24,33.31V16.73H44.82V33.31Z" transform="translate(0 0)" fill="#000000"/>
    <path class="c1" d="M44.82,9.32v5.39h5.42V9.32Z" transform="translate(0 0)" fill="#000000"/>
    <path class="c1" d="M0,19.56A20.09,20.09,0,0,1,37,9.24l0,.08h-.19c-.54,0-1.08,0-1.62,0a4.46,4.46,0,0,0-2.71,1.22A6.35,6.35,0,0,0,30.63,14a15.59,15.59,0,0,0-.3,3.48v.37H28.27V21.1h2.06V37a.23.23,0,0,1-.14.24,19.54,19.54,0,0,1-6.86,2.46c-.7.11-1.39.16-2.08.23l-.11,0h-2.2l-.12,0A20.05,20.05,0,0,1,4.54,32.67,19.67,19.67,0,0,1,.43,24.18,20.62,20.62,0,0,1,0,20.44ZM17.53,33.3V21.4a.21.21,0,0,1,.11-.23,5.91,5.91,0,0,1,1.45-.49,9,9,0,0,1,1.47-.07,3.18,3.18,0,0,1,1.4.49,2.62,2.62,0,0,1,1.24,1.63,6.76,6.76,0,0,1,.2,1.73v8.83h3.39V25a14.05,14.05,0,0,0-.05-1.45c0-.63-.1-1.27-.2-1.9A4,4,0,0,0,25.93,20a5.47,5.47,0,0,0-2.54-2.09,7.85,7.85,0,0,0-2.62-.58,8.66,8.66,0,0,0-2.78.29,5.89,5.89,0,0,1-1.62.19c-.7,0-1.41,0-2.11,0H14.1V33.3Zm-6.67-24H7.43v24h3.43Z" transform="translate(0 0)" fill="#000000"/>
    <path class="c2" d="M89.11,40l2.09-5c.28-.66.55-1.32.84-2a.45.45,0,0,0,0-.36Q89.86,27,87.69,21.22L86.48,18l-.07-.21h5.35A.19.19,0,0,1,92,18l3,7.83c0,.06,0,.11.08.2l.83-2,2.55-6a.23.23,0,0,1,.25-.18H104l-.47,1.11-8.87,21a.21.21,0,0,1,0,.06Z" transform="translate(0 0)" fill="#000000"/>
    <path class="c2" d="M64.85,24.49c.54-.32,1.07-.61,1.56-.95a6.61,6.61,0,0,0,3-5.15A10.59,10.59,0,0,0,69,14.8a6.57,6.57,0,0,0-4.2-4.74,12.88,12.88,0,0,0-4.56-.75H53.45v24h5.44V25.7l2.48,2.92q1.93,2.29,3.88,4.57a.35.35,0,0,0,.23.12H72.1a.39.39,0,0,0,.14,0Zm-.66-6.9a2.87,2.87,0,0,1-.59,1.76,2.44,2.44,0,0,1-1.25.75,10,10,0,0,1-2.88.22h-.58v-5.6s0,0,0,0a14.29,14.29,0,0,1,3.33.22,2.45,2.45,0,0,1,1.95,2.67Z" transform="translate(0 0)" fill="#000000"/>
    <path class="c2" d="M85.78,17.83V33.3H80.34v-.74c-.3.13-.59.29-.88.39a6,6,0,0,1-6.24-1.26,7.61,7.61,0,0,1-2.47-4.62,9.27,9.27,0,0,1,.35-4.7,7.42,7.42,0,0,1,4.66-4.75,6.9,6.9,0,0,1,2.85-.39,7.74,7.74,0,0,1,2.23.54.75.75,0,0,0,.29.06h4.65Zm-5.44,7.25V22.56c0-.45,0-.45-.44-.56a3.83,3.83,0,0,0-1.35,0,2.72,2.72,0,0,0-2.23,1.39,4.14,4.14,0,0,0,.05,4.22,2.33,2.33,0,0,0,2.22,1.17,2.55,2.55,0,0,0,1.62-.68.29.29,0,0,0,.13-.27c0-.91,0-1.81,0-2.72Z" transform="translate(0 0)" fill="#000000"/>
    <path class="c1" d="M33.72,34.65V21.11h2.06V17.85H33.7c0-.73,0-1.43.09-2.13a7.05,7.05,0,0,1,.28-1.44,1.87,1.87,0,0,1,1.75-1.38,14.16,14.16,0,0,1,1.46,0h1.4a.17.17,0,0,1,.2.13,20,20,0,0,1-5.09,21.62Z" transform="translate(0 0)" fill="#000000"/>
    <path class="c1" d="M50.24,33.31H44.82V16.73h5.42Z" transform="translate(0 0)" fill="#000000"/>
    <path class="c1" d="M44.82,9.32h5.42v5.39H44.82Z" transform="translate(0 0)" fill="#000000"/>
  </g>
</svg>