<svg xmlns="http://www.w3.org/2000/svg" viewBox="0 0 28 24" width="28px" height="24px">
  <defs>
    <style>
      .c1 { fill: #f9af00; }
    </style>
  </defs>
<polygon class="c1" points="16.1,19.4 5.3,14.8 3.1,18.8 15.1,21 16.1,19.4 "/>
<polygon class="c1" points="14.6,24 18.2,24 21.3,18.6 24.4,24 28,24 21.3,12.5 14.6,24 14.6,24 "/>
<polygon class="c1" points="2.5,19.7 0,24 13.4,24 14.6,22 2.5,19.7 "/>
<polygon class="c1" points="20.7,11.5 14,0 11.5,4.3 19.5,13.6 20.7,11.5 20.7,11.5 "/>
<polygon class="c1" points="19,14.5 10.9,5.3 8.6,9.2 18,16.1 19,14.5 "/>
<polygon class="c1" points="17.5,16.9 8.1,10 5.8,14 16.6,18.6 17.5,16.9 "/>
</svg>
