<svg xmlns="http://www.w3.org/2000/svg" viewBox="0 0 106 24" width="106px" height="24px">
  <defs>
    <style>
      .c1 { fill: #ef7e20; }
      .c2 { fill: #00549e; }
    </style>
  </defs>
  <polygon class="c1" points="84.13 11.2 84.79 8.53 106 8.53 106 11.2 84.13 11.2"/>
  <polygon class="c1" points="85.18 6.94 85.84 4.27 106 4.27 106 6.94 85.18 6.94"/>
  <polygon class="c1" points="86.23 2.67 86.88 0 106 0 106 2.67 86.23 2.67"/>
  <polygon class="c1" points="25.57 24 26.21 21.33 21.92 21.33 24.66 24 25.57 24"/>
  <polygon class="c1" points="26.59 19.73 27.23 17.06 17.53 17.06 20.28 19.73 26.59 19.73"/>
  <polygon class="c1" points="27.61 15.47 28.24 12.8 13.15 12.8 15.9 15.47 27.61 15.47"/>
  <polygon class="c1" points="28.62 11.2 29.26 8.53 8.77 8.53 11.51 11.2 28.62 11.2"/>
  <polygon class="c1" points="29.64 6.94 30.28 4.27 4.38 4.27 7.13 6.94 29.64 6.94"/>
  <polygon class="c1" points="30.65 2.67 31.29 0 0 0 2.75 2.67 30.65 2.67"/>
  <polygon class="c2" points="74.54 24 78.16 20.54 80.02 12.8 80.02 12.78 77.1 9.07 73.44 9.08 74.11 6.29 74.57 5.93 75.53 5.93 75.89 6.35 75.74 6.94 81.42 6.94 82.11 3.97 79.67 0 73.23 0 70.14 2.67 79.81 2.67 80.77 4.27 68.94 4.27 68.31 6.94 72.46 6.94 72.08 8.53 67.93 8.53 67.29 11.2 77.3 11.2 78.54 12.8 67.26 12.8 69.32 15.47 77.89 15.47 77.51 17.06 73.4 17.06 73.14 18.15 72.68 18.51 71.72 18.51 71.36 18.1 71.56 17.3 71.62 17.06 65.9 17.06 65.26 19.73 76.87 19.73 75.14 21.33 65.16 21.33 67 24 74.54 24"/>
  <polygon class="c2" points="48.23 24 51.27 11.2 57.64 11.2 56.96 12.8 51.49 12.8 51.39 15.47 55.82 15.47 55.14 17.06 51.33 17.06 51.22 19.73 54 19.73 53.32 21.33 51.16 21.33 51.06 24 53.69 24 59.14 11.2 63.38 11.2 63.01 12.8 58.85 12.8 58.22 15.47 62.37 15.47 61.99 17.06 57.84 17.06 57.2 19.73 61.35 19.73 60.97 21.33 56.82 21.33 56.19 24 61.84 24 66.92 2.67 67.55 0 60.14 0 58.88 2.67 65.42 2.67 65.04 4.27 58.13 4.27 56.87 6.94 64.4 6.94 64.02 8.53 56.12 8.53 55.15 10.59 55.15 0 48.63 0 48 2.67 53.65 2.67 53.65 4.27 47.62 4.27 46.98 6.94 53.65 6.94 53.65 8.53 46.6 8.53 45.97 11.2 49.77 11.2 49.39 12.8 45.59 12.8 44.95 15.47 48.76 15.47 48.38 17.06 44.57 17.06 43.94 19.73 47.74 19.73 47.37 21.33 43.56 21.33 42.92 24 48.23 24"/>
  <polygon class="c2" points="40.42 24 41.06 21.33 41.44 19.73 42.08 17.06 36.92 17.06 37.29 15.47 42.02 15.47 42.23 14.59 42.23 14.59 43.12 10.83 43.67 8.53 38.9 8.53 39.27 6.94 44.49 6.94 45.13 4.27 45.13 4.27 45.5 2.67 45.51 2.67 46.14 0 34.9 0 34.27 2.67 44 2.67 43.62 4.27 33.89 4.27 33.25 6.94 37.77 6.94 37.4 8.53 32.87 8.53 32.24 11.2 41.54 11.2 41.16 12.8 31.86 12.8 31.22 15.47 35.79 15.47 35.42 17.06 30.84 17.06 30.2 19.73 39.94 19.73 39.56 21.33 29.83 21.33 29.19 24 40.42 24"/>
</svg>
