<svg xmlns="http://www.w3.org/2000/svg" viewBox="0 0 120 24" width="120px" height="24px">
  <defs>
    <style>
      .c1 { fill: #005baa; }
      .c2 { fill: #fff; }
    </style>
  </defs>
  <rect class="c1" width="120" height="24"/>
  <path class="c2" d="M65.89,7.74A1.27,1.27,0,0,1,67,8.57a6.52,6.52,0,0,1,.44,2.76,3.43,3.43,0,0,1-.28,1.54c-.17.33-.37.5-.6.5s-.4-.14-.56-.44a3,3,0,0,1-.25-1.37V7.74Zm3.18.1a3.3,3.3,0,0,0-3.18-2H63.66v13H65.8V15a1.92,1.92,0,0,0,3.12-.54,7.11,7.11,0,0,0,.77-3.66,6.8,6.8,0,0,0-.62-3Zm44.87-2.68-5,5.19V5.78h-2.1v13H109V13.44l3-3.22.3,8.56h2.14l-.52-13.61Zm-15,5.19V5.78h-2.1v13h2.1V13.44l3-3.22.3,8.56h2.14l-.52-13.61-5,5.19Zm-7.35,5.21a5,5,0,0,1-1-3.25,5,5,0,0,1,1-3.25,3.79,3.79,0,0,1,3.11-1.32h.1V5.47h-.1a6,6,0,0,0-4.85,2,7.33,7.33,0,0,0-1.51,4.89,7.14,7.14,0,0,0,1.64,4.87,6,6,0,0,0,4.75,2h.1V16.89h-.1a3.81,3.81,0,0,1-3.1-1.34ZM76,15.64c-.28.85-.7,1.29-1.23,1.29s-.92-.44-1.2-1.31a11.17,11.17,0,0,1-.44-3.4,11,11,0,0,1,.44-3.4c.28-.83.68-1.25,1.2-1.25s1,.42,1.29,1.27a11.41,11.41,0,0,1,.38,3.35A11.3,11.3,0,0,1,76,15.64Zm1.59-8.3A3.11,3.11,0,0,0,74.8,5.47a3,3,0,0,0-2.69,1.88,10.64,10.64,0,0,0-1,4.85,11.26,11.26,0,0,0,.92,4.95A3,3,0,0,0,74.8,19a3.15,3.15,0,0,0,2.85-2,10.67,10.67,0,0,0,1-4.88,10.28,10.28,0,0,0-1-4.84Zm5.93,8.22a5,5,0,0,1-1-3.25,5,5,0,0,1,1-3.25,3.79,3.79,0,0,1,3.11-1.32h.1V5.47h-.1a6,6,0,0,0-4.85,2,7.33,7.33,0,0,0-1.51,4.89,7.14,7.14,0,0,0,1.64,4.87,6,6,0,0,0,4.75,2h.1V16.89h-.1A3.81,3.81,0,0,1,83.55,15.56Z"/>
  <path class="c2" d="M4.91,5.71V18.77h2.4V7.88h3V18.77h2.4V5.71ZM20.08,16.83c-.57,0-1-.42-1.31-1.27a10,10,0,0,1-.49-3.38,9.87,9.87,0,0,1,.48-3.38c.31-.82.74-1.22,1.32-1.22s1.11.4,1.42,1.24a10.2,10.2,0,0,1,.42,3.33,10.11,10.11,0,0,1-.49,3.43c-.31.85-.75,1.26-1.35,1.26Zm3.16-9.56a3.54,3.54,0,0,0-3.17-1.89,3.38,3.38,0,0,0-3,1.91A9.75,9.75,0,0,0,16,12.16a10.32,10.32,0,0,0,1,5A3.35,3.35,0,0,0,20.07,19a3.57,3.57,0,0,0,3.21-2,9.79,9.79,0,0,0,1.07-4.91,9.45,9.45,0,0,0-1.11-4.87ZM37.45,5.71V7.88h2V18.77h2.4s0-10.59,0-10.89h2V5.71Zm-5.28,4.55H30.87a1.69,1.69,0,0,1-1.2-.36.9.9,0,0,1-.27-.7V5.71H27V9.44a2.75,2.75,0,0,0,1,2.16,3.58,3.58,0,0,0,2.41.86h1.76v6.31h2.4V5.71h-2.4v4.55Zm17.07,0c0-.26.05-2.09.06-2.34h.87a1.44,1.44,0,0,1,1.3.57,4.58,4.58,0,0,1,.45,1.78Zm4.94-1A3.34,3.34,0,0,0,53,6.43a3.9,3.9,0,0,0-2.47-.72H47l-.44,13.06H49s.22-6.09.23-6.38h3l.67,6.37H55.3Z"/>
</svg>
