<svg xmlns="http://www.w3.org/2000/svg" xmlns:xlink="http://www.w3.org/1999/xlink" viewBox="0 0 49 14">
  <defs>
    <style>
      .c1 { fill: url(#linear-gradient); }
      .c2 { fill: #4db45f; }
    </style>
    <linearGradient id="linear-gradient" x1="34.17" y1="13" x2="48.5" y2="13" gradientTransform="matrix(1, 0, 0, -1, 0, 16)" gradientUnits="userSpaceOnUse">
      <stop offset="0" stop-color="#00b4e6"/>
      <stop offset="1" stop-color="#088ccb"/>
    </linearGradient>
  </defs>
  <path class="c1" d="M43.5,0H34.2A7.35,7.35,0,0,0,41,6h7.4a3.4,3.4,0,0,0,.1-1A5,5,0,0,0,43.5,0Z"/>
  <path class="c2" d="M35,6.5V14h4.5V10h4a5,5,0,0,0,4.7-3.5Z"/>
  <path class="c2" d="M19,0V14h4a1.78,1.78,0,0,0,1.5-1L28,6h.5v8H33V0H29a2.08,2.08,0,0,0-1.5,1L24,8h-.5V0Z"/>
  <path class="c2" d="M0,14V0H4.5s1.3,0,2,2c1.8,5.3,2,6,2,6s.4-1.3,2-6c.7-2,2-2,2-2H17V14H12.5V6.5H12L9.5,14h-2L5,6.5H4.5V14Z"/>
</svg>