<svg xmlns="http://www.w3.org/2000/svg" xmlns:xlink="http://www.w3.org/1999/xlink" viewBox="0 0 37 12">
<defs>
<linearGradient id="grad" y1="6" x2="37" y2="6" gradientUnits="userSpaceOnUse">
<stop offset="0" stop-color="#22255d"/>
<stop offset="1" stop-color="#2448a0"/>
</linearGradient>
</defs>
<path style="fill:url(#grad)" d="M19.14,3.84c0,1.67,1.48,2.6,2.62,3.16s1.56.93,1.55,1.44c0,.78-.93,1.12-1.79,1.14a6.22,6.22,0,0,1-3.07-.73l-.54,2.54a9,9,0,0,0,3.32.62c3.14,0,5.19-1.56,5.21-4,0-3.06-4.22-3.23-4.19-4.6,0-.42.4-.86,1.27-1A5.61,5.61,0,0,1,26.46,3L27,.52A8,8,0,0,0,24.19,0c-3,0-5,1.58-5.05,3.84M32,.21a1.36,1.36,0,0,0-1.27.85L26.28,11.82h3.14L30,10.09h3.83l.36,1.73H37L34.59.21H32m.44,3.14.91,4.36H30.9l1.57-4.36M15.33.21,12.86,11.82h3L18.32.21h-3m-4.42,0L7.8,8.11,6.54,1.39A1.4,1.4,0,0,0,5.16.21H.07L0,.55a12.41,12.41,0,0,1,2.95,1,1.27,1.27,0,0,1,.71,1L6,11.82H9.2L14,.21H10.91"/>
</svg>