<svg xmlns="http://www.w3.org/2000/svg" xmlns:xlink="http://www.w3.org/1999/xlink" viewBox="0 0 90 20" width="90px" height="20px">
  <defs>
    <style>
      .c1 { fill: #505050; }
      .c2 { fill: url(#grad); }
      .c3 { fill: #fff; }
      .c4 { fill: #d0d2d3; }
    </style>
    <radialGradient id="grad" cx="-233.82" cy="-4.43" r="122" gradientTransform="translate(38.51 8.58) scale(0.13 0.13)" gradientUnits="userSpaceOnUse">
      <stop offset="0" stop-color="#a5cd39"/>
      <stop offset="0.31" stop-color="#a1ca38"/>
      <stop offset="0.92" stop-color="#00803e"/>
      <stop offset="1" stop-color="#00803e"/>
    </radialGradient>
  </defs>
  <path class="c1" d="M36,5.36H34.17c-3.76,0-7,9.29-2.54,9.29h2.86c1.65,0,2.87.59,2.33,2.17L36.07,19H33l-2.46,0c-3.15,0-5.19-1.55-5.92-3.85-.79-2.49.33-7.69,3.58-11A10.57,10.57,0,0,1,36.07,1h6.19l-1,2.72a2.28,2.28,0,0,1-2.63,1.63Z" transform="translate(0)"/>
  <path class="c1" d="M70.2,7.83h-10c-1.65,0-2.4.45-2.69,1.38l-.94,3h10c1.65,0,2.4-.45,2.69-1.38Z" transform="translate(0)"/>
  <path class="c1" d="M67.77,14.65h-10c-1.65,0-2.4.45-2.69,1.38l-.94,3h10c1.65,0,2.4-.45,2.69-1.38l.94-3ZM72.51,1h-10c-1.65,0-2.4.45-2.69,1.38l-.94,3h10c1.65,0,2.4-.45,2.69-1.38Z" transform="translate(0)"/>
  <path class="c1" d="M47.48,5.35H50c2.11,0,1.63,2.59.56,5.12-.94,2.23-2.61,4.19-4.6,4.19H41.78c-1.65,0-2.41.45-2.73,1.38l-1,3h3l3,0c2.63,0,4.78-.21,7.29-2.43s5.76-8.44,5.22-12C56.13,1.83,54.62,1,51,1H44.29L40.41,12.17h2.47c1.47,0,2.2,0,3-2Z" transform="translate(0)"/>
  <path class="c1" d="M68.53,19h4.7l2-5.66,2.1-1.74L79,16.72c.51,1.58,1,2.28,2.19,2.28h3.6L81.07,9,90,1H84.24L78.82,6.66c-.63.66-1.27,1.31-1.91,2.08h-.05L79.56,1h-4.7Z" transform="translate(0)"/>
  <path class="c2" d="M7.5.31A10,10,0,1,1,.31,12.48,10,10,0,0,1,7.5.31Z" transform="translate(0)"/>
  <path class="c3" d="M5.46,6.55a21.75,21.75,0,0,0,4.12.53c2.43.08,5.08,0,8.25,0h1.11c.26,0,.34.3,0,.38l-1,.28c-6,1.8-10.49,4-13.78,9.42-.13.21-.35.1-.31-.16a20.46,20.46,0,0,1,1.85-6.83c-.66-.93-.48-1.95-1.15-3.46-.08-.17-.13-.31-.17-.41-.1-.26.05-.36.26-.27C5.2,6.24,4.84,6.42,5.46,6.55Z" transform="translate(0)"/>
  <path class="c4" d="M5.46,6.55a21.71,21.71,0,0,0,4.12.53c2.16.07,4.5,0,7.23,0C11.47,8.81,7.17,11.26,4.07,16a18.5,18.5,0,0,1,1.71-5.85L5.3,9.5l.12-.25a20.11,20.11,0,0,1-2-3.18c0-.13.14-.17.29-.1A9.45,9.45,0,0,0,5.46,6.55Z" transform="translate(0)"/>
  <path class="c3" d="M4.49,4.8a21.71,21.71,0,0,0,4.12.53c2.43.08,5.08,0,8.25,0H18c.26,0,.34.3,0,.38L17,6c-6,1.8-10.67,4.37-14,9.77-.13.22-.35.17-.31-.08a25.68,25.68,0,0,1,2-7.26A19.21,19.21,0,0,1,2.69,4.9c-.08-.17-.14-.29-.17-.4-.1-.26.09-.39.31-.27A9.4,9.4,0,0,0,4.49,4.8Z" transform="translate(0)"/>
</svg>
