<?xml version="1.0" encoding="UTF-8"?>
<svg xmlns="http://www.w3.org/2000/svg" viewBox="0 0 150 36">
  <defs>
    <style>
      .c1 { fill: #707070; }
      .c1, .c2 { stroke-width: 0px; }
      .c2 { fill: #000; }
    </style>
  </defs>
  <polygon class="c2" points="0 0 17 0 17 3 10 3 10 27 7 27 7 3 0 3 0 0"/>
  <path class="c2" d="M25,27h-6c-4.05,0-7-2.93-7-7v-7c0-2.85,2.05-5,5-5h4c2.95,0,5,2.15,5,5,0,2.39-1.85,4.65-4.12,5.18l-6.88,1.82c0,2.36,1.65,4,4,4h6v3ZM15,17l6.19-1.48c1.02-.23,1.81-1.23,1.81-2.52s-.79-2-2-2h-4c-1.25,0-2,.67-2,2v4Z"/>
  <rect class="c2" x="27" width="3" height="27"/>
  <path class="c2" d="M51.16,18.15c-2.35-.61-4.16-2.47-4.16-5.02,0-2.85,2.05-5.13,5-5.13h8v3h-8c-1.21,0-1.97.8-1.97,2.13,0,1.22.76,2.13,1.74,2.39l5.07,1.33c2.35.61,4.16,2.55,4.16,5.02,0,2.85-2.05,5.13-5,5.13h-9v-3h9c1.21,0,1.97-.8,1.97-2.13s-.76-2.17-1.89-2.47l-4.92-1.25Z"/>
  <path class="c2" d="M69,27c-3.86,0-7-3.12-7-6.95v-6.92c0-2.85,2.09-5.13,5-5.13h8v3h-8c-1.19,0-2,.82-2,2v7c0,2.17,1.86,4,4,4h6v3h-6Z"/>
  <path class="c2" d="M81.67,27c-3.17,0-5.67-2.73-5.67-6v-8c0-2.85,2.21-5,4.97-5h4.05c2.76,0,4.97,2.28,4.97,5.13v7.98c0,3.27-2.51,5.89-5.67,5.89h-2.65ZM85,24c1.51,0,2-.44,2-2v-9c0-1.18-.86-2-2-2h-4c-1.1,0-2,.82-2,2v9c0,1.56.49,2,2,2h4Z"/>
  <path class="c2" d="M105,20c0,4.11-2.95,7-7,7h-4v9h-3V8h9c2.88,0,5,2.12,5,5v7ZM94,24h4c2.35,0,4-1.62,4-4v-7c0-1.19-.83-2-2-2h-6v13Z"/>
  <rect class="c1" x="128" y="10" width="2" height="2"/>
  <path class="c1" d="M131,0h2v1c.8-.82,1.8-1,3-1h3v2h-3c-1.62,0-3,1.36-3,3v7h-2V0Z"/>
  <path class="c1" d="M148,0h2v12h-1.35l-.81-1.26c-.81.84-1.59,1.26-2.84,1.26h-1c-2.05,0-4-1.68-4-3.78V0h2v8.47c0,.87,1.16,1.53,2,1.53h1c1.68,0,3-1.39,3-3.12V0Z"/>
  <path class="c2" d="M126,0h-3s.02,1.05-1.06,2.04c-.83.76-1.94.96-1.94.96v2s1.04-.21,1.69-.47c.83-.34,1.31-.53,1.31-.53v23h3V0Z"/>
  <path class="c2" d="M45,27h-6c-4.05,0-7-2.93-7-7v-7c0-2.85,2.05-5,5-5h4c2.95,0,5,2.15,5,5,0,2.39-1.85,4.65-4.12,5.18l-6.88,1.82c0,2.36,1.65,4,4,4h6v3ZM35,17l6.19-1.48c1.02-.23,1.81-1.23,1.81-2.52s-.79-2-2-2h-4c-1.25,0-2,.67-2,2v4Z"/>
  <path class="c2" d="M119,27h-6c-4.05,0-7-2.93-7-7v-7c0-2.85,2.05-5,5-5h4c2.95,0,5,2.15,5,5,0,2.39-1.85,4.65-4.12,5.18l-6.88,1.82c0,2.36,1.65,4,4,4h6v3ZM109,17l6.19-1.48c1.02-.23,1.81-1.23,1.81-2.52s-.79-2-2-2h-4c-1.25,0-2,.67-2,2v4Z"/>
</svg>
