<?xml version="1.0" encoding="UTF-8"?>
<svg xmlns="http://www.w3.org/2000/svg" viewBox="0 0 36 36" >
  <defs>
    <style>
      .c1 { fill: #1e528e; }
      .c1, .c2, .c3, .c4, .c5, .c6, .c7, .c8, .c9, .c10 { stroke-width: 0px; }
      .c2 { fill: #223f81; }
      .c3 { fill: #243269; }
      .c4 { fill: #226e9f; }
      .c5 { fill: #1a538f; }
      .c6 { fill: #242355; }
      .c7 { fill: #214081; }
      .c8 { fill: #248ab8; }
      .c9 { fill: #fff; }
      .c10 { fill: #ccc; }
    </style>
  </defs>
  <path class="c1" d="M36,18c0,8.36-5.7,15.39-13.42,17.41l-1.63-6.21-.08-.3-.5-1.9h-4.74l-.09.34-2.12,8.07C5.7,33.39,0,26.36,0,18,0,8.06,8.06,0,18,0c5.11,0,9.73,2.14,13,5.56l-2.58,1.25-4.7,2.27-1.75.84,3.55,8.81.99-.44,3.22-1.43,5.88-2.61c.26,1.2.39,2.45.39,3.74Z"/>
  <path class="c1" d="M21.67,35.63c-1.03.22-2.1.34-3.2.36v-7.56h.95l.14.46,2.11,6.75Z"/>
  <path class="c4" d="M4.74,23.21L0,17.54H0c.1-3.78,1.36-7.28,3.44-10.13l1.29,15.8Z"/>
  <path class="c5" d="M4.74,23.21l-3.04,2.43c-1.09-2.32-1.7-4.91-1.7-7.64,0-.16,0-.31,0-.46l4.73,5.67Z"/>
  <path class="c8" d="M7.53,32.65c-2.5-1.79-4.52-4.2-5.83-7.01l3.04-2.43,2.79,9.44Z"/>
  <path class="c4" d="M15.54,27.34l-2.12,8.07c-2.15-.56-4.14-1.51-5.89-2.76l-2.79-9.44,10.8,4.13Z"/>
  <path class="c4" d="M16.58,28.42h.95v7.57c-1.09-.02-2.16-.15-3.2-.37l2.25-7.2Z"/>
  <path class="c4" d="M21.67,35.63c-1.03.21-2.1.34-3.2.36v-7.53l1.09.42,2.11,6.75Z"/>
  <path class="c7" d="M33.17,27.69c-2.41,3.75-6.17,6.56-10.59,7.72l-1.63-6.21,6.05-9.31,6.17,7.8Z"/>
  <path class="c4" d="M35.78,20.82c-.39,2.5-1.29,4.83-2.61,6.87l-6.17-7.8,8.78.92Z"/>
  <path class="c6" d="M36,18c0,.96-.08,1.9-.22,2.82l-8.78-.92,2.73-3.02,5.88-2.61c.26,1.2.39,2.45.39,3.74Z"/>
  <polygon class="c2" points="28.43 6.81 23.72 9.09 22.26 4.26 28.43 6.81"/>
  <polygon class="c2" points="29.73 16.87 27 19.89 26.52 18.3 29.73 16.87"/>
  <polygon class="c1" points="27 19.89 20.95 29.2 20.87 28.9 22.26 4.26 23.72 9.09 21.97 9.93 25.53 18.74 26.52 18.3 27 19.89"/>
  <polygon class="c8" points="19.42 28.42 19.56 28.88 18.47 28.46 18.47 28.42 19.42 28.42"/>
  <polygon class="c8" points="22.26 4.26 20.87 28.9 20.37 27 15.63 27 15.54 27.34 4.74 23.21 22.26 4.26"/>
  <path class="c6" d="M31.01,5.56l-2.58,1.25-6.16-2.55,3.57-2.47c1.95.94,3.69,2.22,5.17,3.77Z"/>
  <path class="c3" d="M25.83,1.79l-3.57,2.47-.43-3.86c1.4.3,2.74.77,4,1.38Z"/>
  <path class="c2" d="M22.26,4.26L13.86.48c1.33-.31,2.72-.48,4.14-.48,1.32,0,2.6.14,3.84.41l.43,3.86Z"/>
  <g>
    <path class="c9" d="M22.58,35.41s-.06.02-.08.02c-.27.07-.55.13-.83.19l-2.11-6.75-.14-.46h-.95v7.57c-.08,0-.16,0-.24,0-.08,0-.16,0-.24,0s-.16,0-.24,0c-.08,0-.16,0-.24,0v-7.57h-.95l-2.25,7.2c-.31-.06-.61-.13-.91-.21l2.12-8.07.09-.34h4.74l.5,1.9.08.3,1.63,6.21Z"/>
    <path class="c9" d="M35.61,14.26l-5.88,2.61-3.22,1.43-.99.44-3.55-8.81,1.75-.84,4.7-2.27,2.58-1.25c.11.11.21.22.32.34.09.1.19.21.28.32.09.11.19.22.28.33.11.13.22.26.32.4.07.09.14.18.21.28.09.11.17.23.26.35.07.09.14.19.2.29.24.35.46.71.68,1.07.11.19.22.38.33.58.05.1.1.2.16.3.06.12.13.25.18.37.12.24.23.48.33.72.13.31.26.63.37.95.04.12.09.24.12.36.05.14.09.28.14.42.03.1.07.2.09.31.02.09.05.17.07.25.06.18.1.36.14.55.04.17.08.34.12.51Z"/>
    <polygon class="c9" points="2.12 20.97 4.75 26.61 7.85 24.86 5.19 19.85 2.12 20.97"/>
    <polygon class="c9" points="12.73 21.73 15.16 25.58 21.32 25.58 21.32 22.74 17.05 22.74 16.31 21.4 13.63 16.59 6.32 20.27 7.79 23.93 12.73 21.73"/>
    <polygon class="c9" points="21.72 11.55 13.85 15.2 16.47 21.32 24.89 17.54 21.72 11.55"/>
    <polygon class="c10" points="5.19 19.85 4.18 20.22 7.85 24.86 5.19 19.85"/>
    <polygon class="c10" points="20.54 12.1 24.89 17.54 21.72 11.55 20.54 12.1"/>
    <polygon class="c10" points="13.63 16.59 12.57 17.12 16.31 21.4 13.63 16.59"/>
    <circle class="c8" cx="16.34" cy="23.92" r=".59"/>
    <rect class="c10" x="20.37" y="22.74" width=".95" height="2.84"/>
  </g>
</svg>